<svg width="162" height="48" viewBox="0 0 162 48" fill="none" xmlns="http://www.w3.org/2000/svg">
<path d="M79.6983 5.45898V14.047C79.7442 15.1255 79.5613 16.2015 79.1616 17.2042C78.7619 18.2069 78.1545 19.1137 77.3793 19.8649C76.6041 20.6161 75.6787 21.1948 74.6639 21.5627C73.649 21.9307 72.5678 22.0797 71.4913 22C69.4172 21.9312 67.4517 21.0566 66.0121 19.5619C64.5725 18.0672 63.7722 16.0702 63.7813 13.995V5.45898H65.2853C65.9342 5.45891 66.5565 5.71656 67.0153 6.17526C67.4742 6.63396 67.7321 7.25615 67.7323 7.90498V14.563C67.7323 17.08 69.1053 18.453 71.6273 18.453C73.9733 18.453 75.7483 17.08 75.7483 14.563V7.90499C75.7483 7.58378 75.8116 7.2657 75.9345 6.96893C76.0574 6.67216 76.2376 6.40251 76.4647 6.17537C76.6918 5.94823 76.9615 5.76806 77.2583 5.64515C77.555 5.52223 77.8731 5.45898 78.1943 5.45899L79.6983 5.45898Z" fill="white"/>
<path d="M103.23 26.615H101.055C100.643 26.5772 100.23 26.6896 99.8936 26.9315C99.5571 27.1735 99.3191 27.5287 99.2234 27.932L92.9824 42.187L86.6274 27.932C86.5317 27.5287 86.2938 27.1735 85.9572 26.9315C85.6207 26.6896 85.2082 26.5772 84.7954 26.615H82.6204C82.4379 26.6242 82.2592 26.6707 82.0954 26.7517C81.9316 26.8328 81.7861 26.9465 81.668 27.086C81.5499 27.2254 81.4617 27.3877 81.4088 27.5626C81.3559 27.7375 81.3394 27.9214 81.3604 28.103V47.397H83.3644C83.6207 47.3991 83.8748 47.3502 84.112 47.2531C84.3492 47.156 84.5647 47.0127 84.7459 46.8314C84.9271 46.6502 85.0705 46.4347 85.1675 46.1976C85.2646 45.9604 85.3135 45.7062 85.3114 45.45V34.047L89.5474 43.962C89.8168 44.6378 90.2827 45.2172 90.8849 45.6255C91.4871 46.0337 92.1979 46.2519 92.9254 46.2519C93.6529 46.2519 94.3637 46.0337 94.9659 45.6255C95.5681 45.2172 96.034 44.6378 96.3034 43.962L100.54 34.248V45.45C100.538 45.7062 100.587 45.9603 100.684 46.1975C100.781 46.4346 100.924 46.6501 101.105 46.8314C101.286 47.0126 101.502 47.1559 101.739 47.253C101.976 47.3502 102.23 47.3991 102.486 47.397H104.49V28.103C104.511 27.9214 104.495 27.7375 104.442 27.5626C104.389 27.3876 104.301 27.2254 104.183 27.086C104.065 26.9465 103.919 26.8327 103.755 26.7517C103.592 26.6707 103.413 26.6242 103.23 26.615Z" fill="white"/>
<path d="M119.835 26.5004C119.447 26.5072 119.068 26.6167 118.735 26.8178C118.403 27.019 118.131 27.3045 117.945 27.6454L114.67 33.8054C114.501 34.1234 114.248 34.3894 113.939 34.5749C113.631 34.7604 113.277 34.8584 112.917 34.8584H111.532V28.8544C111.532 28.2301 111.284 27.6314 110.843 27.1899C110.401 26.7485 109.802 26.5005 109.178 26.5004H107.582V47.3964H109.178C109.802 47.3964 110.401 47.1484 110.843 46.7069C111.284 46.2655 111.532 45.6667 111.532 45.0424V38.8094H115.139C115.583 38.8094 116.022 38.8967 116.432 39.0664C116.842 39.2362 117.214 39.485 117.528 39.7987C117.841 40.1124 118.09 40.4848 118.26 40.8946C118.43 41.3045 118.517 41.7438 118.517 42.1874V44.3054C118.517 45.1252 118.843 45.9114 119.422 46.4911C120.002 47.0707 120.788 47.3964 121.608 47.3964H122.467V42.1874C122.467 38.7594 120.927 36.3584 118.233 35.3664L123.211 26.5004H119.835Z" fill="white"/>
<path d="M71.7377 6.20365C72.0544 6.20678 72.3686 6.1467 72.6618 6.02695C72.955 5.90719 73.2214 5.73016 73.4453 5.50621C73.6693 5.28226 73.8463 5.01589 73.966 4.72269C74.0858 4.42949 74.1459 4.11535 74.1428 3.79865C74.1195 3.16833 73.8586 2.57016 73.4125 2.12425C72.9664 1.67833 72.3681 1.41769 71.7377 1.39465C71.0952 1.41379 70.4824 1.66992 70.0174 2.11373C69.5523 2.55755 69.2679 3.15769 69.2188 3.79865C69.2381 4.4502 69.5133 5.06789 69.9848 5.51801C70.4562 5.96814 71.086 6.21446 71.7377 6.20365Z" fill="white"/>
<path d="M63.7812 35.4884V38.9234C63.7812 44.1334 67.0442 47.3964 71.6812 47.3964H78.5522V45.3934C78.5468 44.8788 78.3399 44.3867 77.9759 44.0228C77.612 43.6588 77.1199 43.4519 76.6053 43.4464H71.6812C69.3342 43.4464 67.6743 41.5574 67.6743 38.5804H75.5743C76.089 38.5751 76.5811 38.3683 76.9451 38.0043C77.3091 37.6403 77.5159 37.1482 77.5213 36.6334V35.1454H67.6743C67.6743 32.5114 69.3342 30.4504 71.6812 30.4504H77.1203C77.6317 30.4355 78.1182 30.2257 78.4801 29.864C78.842 29.5022 79.052 29.0159 79.0672 28.5044V26.5004H71.6812C67.0442 26.5004 63.7812 29.7634 63.7812 35.4884Z" fill="white"/>
<path d="M157.109 28.9694V40.2424L150.027 28.1554C149.94 28.0064 149.859 27.8534 149.778 27.7004C149.655 27.3539 149.42 27.0587 149.109 26.862C148.798 26.6653 148.43 26.5785 148.064 26.6154H145.831C145.649 26.6246 145.47 26.6711 145.306 26.7521C145.142 26.8331 144.997 26.9468 144.879 27.0863C144.761 27.2258 144.672 27.388 144.62 27.563C144.567 27.7379 144.55 27.9219 144.571 28.1034V47.3964H146.168C146.793 47.3964 147.391 47.1484 147.833 46.7069C148.274 46.2655 148.522 45.6668 148.522 45.0424V33.5644L155.792 46.0804C156.193 46.8814 156.479 47.3964 157.624 47.3964H159.8C159.983 47.3873 160.162 47.3408 160.325 47.2597C160.489 47.1787 160.635 47.065 160.753 46.9255C160.871 46.786 160.959 46.6237 161.012 46.4488C161.064 46.2739 161.081 46.0899 161.059 45.9084V26.6154H159.463C158.839 26.6155 158.24 26.8635 157.799 27.3049C157.357 27.7464 157.109 28.3451 157.109 28.9694Z" fill="white"/>
<path d="M158.771 0.535828C158.537 0.548244 158.308 0.607279 158.097 0.709467C157.887 0.811654 157.698 0.954936 157.544 1.1309C157.389 1.30686 157.271 1.51196 157.196 1.73416C157.122 1.95636 157.093 2.19118 157.11 2.42483L157.112 17.7128C157.095 17.9464 157.124 18.1811 157.198 18.4033C157.273 18.6254 157.391 18.8305 157.545 19.0065C157.7 19.1824 157.888 19.3257 158.099 19.4279C158.309 19.5302 158.539 19.5893 158.772 19.6018H161.063V0.535828H158.771Z" fill="white"/>
<path d="M133.474 26.2143C132.429 26.1788 131.388 26.3592 130.416 26.7443C129.444 27.1293 128.562 27.7107 127.825 28.4522C127.088 29.1936 126.511 30.0791 126.132 31.0533C125.752 32.0276 125.578 33.0696 125.619 34.1143V47.3963H127.215C127.84 47.3963 128.438 47.1483 128.88 46.7069C129.321 46.2654 129.569 45.6667 129.569 45.0423V34.1144C129.546 33.5952 129.63 33.0769 129.816 32.5917C130.003 32.1065 130.287 31.6649 130.651 31.2944C131.015 30.9239 131.452 30.6324 131.934 30.4381C132.416 30.2439 132.933 30.151 133.452 30.1654C133.982 30.1656 134.507 30.2707 134.997 30.4746C135.486 30.6786 135.93 30.9773 136.304 31.3537C136.677 31.73 136.973 32.1765 137.173 32.6675C137.373 33.1585 137.474 33.6842 137.47 34.2144V45.0424C137.47 45.6667 137.718 46.2654 138.16 46.7069C138.601 47.1483 139.2 47.3963 139.824 47.3964H141.42V34.2524C141.432 32.1328 140.602 30.0953 139.112 28.5879C137.622 27.0805 135.594 26.2267 133.474 26.2144" fill="white"/>
<path d="M154.479 13.9323C154.479 18.6263 151.272 21.7753 146.462 21.7753H145.326C145.016 21.7753 144.71 21.7143 144.424 21.5959C144.138 21.4774 143.879 21.3039 143.66 21.0851C143.441 20.8663 143.268 20.6066 143.15 20.3208C143.031 20.035 142.97 19.7287 142.97 19.4193V18.2263H146.462C147.016 18.2481 147.569 18.1521 148.083 17.9446C148.598 17.7371 149.063 17.4228 149.447 17.0225C149.831 16.6222 150.126 16.145 150.312 15.6223C150.499 15.0996 150.572 14.5434 150.527 13.9903C150.527 11.3563 148.924 9.63832 146.462 9.63832C144.172 9.63832 142.684 11.3563 142.684 13.9903C142.684 18.9703 139.591 21.7753 134.957 21.7753H84.9065C84.5811 21.7749 84.2592 21.7086 83.9601 21.5804C83.661 21.4522 83.391 21.2648 83.1664 21.0294C82.9417 20.794 82.7671 20.5155 82.653 20.2108C82.5389 19.9061 82.4877 19.5814 82.5025 19.2563V2.42433C82.4999 2.17546 82.5471 1.9286 82.6412 1.69819C82.7353 1.46779 82.8744 1.25849 83.0504 1.08255C83.2265 0.90662 83.4358 0.767595 83.6663 0.673627C83.8967 0.57966 84.1436 0.532641 84.3925 0.535326H86.4525V18.2263H128.143V14.7343C128.15 14.0739 127.894 13.4376 127.433 12.9652C126.971 12.4927 126.341 12.2227 125.681 12.2143H91.7745V6.37833C91.7747 4.83111 92.3892 3.34728 93.483 2.25295C94.5768 1.15862 96.0603 0.543339 97.6075 0.542326L111.523 0.535326V1.77433C111.523 2.39308 111.278 2.98648 110.84 3.42401C110.403 3.86153 109.809 4.10733 109.19 4.10733H97.9995C97.3964 4.10746 96.8181 4.34709 96.3917 4.77352C95.9653 5.19995 95.7256 5.77827 95.7255 6.38133V8.65633L126.1 8.64233C127.69 8.68443 129.201 9.33935 130.318 10.4701C131.436 11.6008 132.072 13.1198 132.095 14.7093V18.2023L134.956 18.2263C137.187 18.2263 138.733 16.9093 138.733 13.9323C138.733 9.23833 141.825 6.08933 146.461 6.08933C151.271 6.08933 154.478 9.23833 154.478 13.9323" fill="white"/>
<path d="M158.703 22.7199V22.7649C158.701 22.8331 158.712 22.9011 158.736 22.9649C158.76 23.0286 158.797 23.0869 158.844 23.1363C158.891 23.1856 158.948 23.225 159.01 23.2521C159.073 23.2791 159.14 23.2934 159.208 23.2939H160.111C160.236 23.294 160.36 23.3186 160.475 23.3664C160.59 23.4143 160.695 23.4843 160.783 23.5726C160.872 23.6609 160.942 23.7658 160.989 23.8811C161.037 23.9965 161.062 24.1201 161.061 24.2449V24.7149H158.771C158.538 24.7021 158.309 24.6427 158.098 24.5403C157.887 24.4379 157.699 24.2944 157.545 24.1184C157.39 23.9424 157.273 23.7374 157.198 23.5153C157.124 23.2931 157.095 23.0584 157.112 22.8249L157.11 22.6619C157.093 22.4283 157.122 22.1935 157.196 21.9714C157.271 21.7492 157.389 21.5441 157.543 21.3681C157.698 21.1921 157.886 21.0487 158.097 20.9463C158.307 20.8439 158.537 20.7846 158.77 20.7719H161.061V21.2419C161.062 21.3667 161.037 21.4904 160.989 21.6057C160.942 21.7211 160.872 21.8259 160.783 21.9142C160.695 22.0025 160.59 22.0726 160.475 22.1204C160.36 22.1682 160.236 22.1929 160.111 22.1929H159.206C159.139 22.1937 159.072 22.208 159.009 22.2351C158.947 22.2621 158.891 22.3014 158.844 22.3505C158.797 22.3996 158.76 22.4576 158.736 22.521C158.712 22.5844 158.701 22.6521 158.703 22.7199Z" fill="white"/>
<path d="M49.7998 29.0256C48.8079 28.0443 47.6389 27.2601 46.3548 26.7146C45.0226 26.1452 43.5875 25.8559 42.1388 25.8646H29.5228V28.2936C29.5229 29.081 29.8357 29.8361 30.3925 30.3929C30.9492 30.9497 31.7044 31.2625 32.4918 31.2626H42.1388C42.8613 31.2586 43.577 31.4026 44.2418 31.6856C45.5437 32.2355 46.5798 33.2716 47.1298 34.5736C47.409 35.2399 47.5528 35.9551 47.5528 36.6776C47.5528 37.4 47.409 38.1153 47.1298 38.7816C46.5805 40.0835 45.5441 41.1192 44.2418 41.6676C43.5775 41.9526 42.8616 42.0973 42.1388 42.0926H21.1758V43.2436C21.1758 44.375 21.6253 45.46 22.4253 46.2601C23.2253 47.0601 24.3104 47.5096 25.4418 47.5096H42.1388C43.5874 47.5181 45.0224 47.2291 46.3548 46.6606C48.9531 45.561 51.0212 43.4929 52.1208 40.8946C52.6812 39.5594 52.9698 38.126 52.9698 36.6781C52.9698 35.2301 52.6812 33.7967 52.1208 32.4616C51.575 31.1778 50.7869 30.0112 49.7998 29.0256Z" fill="#0CBAB4"/>
<path d="M20.0037 24.6567H28.3207V23.5057C28.3207 22.3743 27.8713 21.2892 27.0712 20.4892C26.2712 19.6892 25.1861 19.2397 24.0547 19.2397H22.6307V11.3657C22.6271 10.6431 22.7714 9.92742 23.0547 9.26268C23.3279 8.61789 23.7223 8.0316 24.2167 7.53568C24.7114 7.04074 25.2976 6.64675 25.9427 6.37568C26.6089 6.09582 27.3242 5.95167 28.0467 5.95167C28.7693 5.95167 29.4846 6.09582 30.1507 6.37568C31.4529 6.92416 32.4887 7.96036 33.0367 9.26268C33.3213 9.92706 33.466 10.6429 33.4617 11.3657V21.7207C33.4618 22.4999 33.7713 23.2471 34.3223 23.7981C34.8733 24.3491 35.6205 24.6586 36.3997 24.6587H38.8787V11.3657C38.8876 9.91724 38.5983 8.48247 38.0287 7.15068C36.9307 4.55164 34.8626 2.48315 32.2637 1.38468C30.9286 0.823647 29.4949 0.534668 28.0467 0.534668C26.5985 0.534668 25.1649 0.823647 23.8297 1.38468C22.5461 1.92979 21.3798 2.71753 20.3947 3.70468C19.4129 4.69647 18.6287 5.8659 18.0837 7.15068C17.5142 8.48247 17.2248 9.91724 17.2337 11.3657V19.2397H10.9667C9.51842 19.2311 8.08379 19.5201 6.75172 20.0887C4.15343 21.1883 2.08536 23.2564 0.985725 25.8547C0.425343 27.19 0.136719 28.6236 0.136719 30.0717C0.136719 31.5198 0.425343 32.9534 0.985725 34.2887C1.53094 35.5725 2.31905 36.7388 3.30672 37.7237C4.29872 38.705 5.46767 39.4895 6.75172 40.0357C8.08379 40.6043 9.51842 40.8932 10.9667 40.8847H23.5837V38.4567C23.5837 37.6693 23.2708 36.9141 22.714 36.3574C22.1573 35.8006 21.4021 35.4878 20.6147 35.4877H10.9667C10.2445 35.4912 9.52914 35.3469 8.86472 35.0637C7.56259 34.5145 6.52634 33.4786 5.97673 32.1767C5.69687 31.5103 5.55272 30.7949 5.55272 30.0722C5.55272 29.3495 5.69687 28.634 5.97673 27.9677C6.52485 26.6652 7.56168 25.6295 8.86472 25.0827C9.52857 24.7974 10.2442 24.6524 10.9667 24.6567H20.0037Z" fill="#0CBAB4"/>
</svg>
